<svg width="296" height="19" viewBox="0 0 296 19" fill="none" xmlns="http://www.w3.org/2000/svg">
<g clip-path="url(#clip0_2_21)">
<path fill-rule="evenodd" clip-rule="evenodd" d="M24.3729 3C24.4375 3 24.4899 3.05238 24.4899 3.11691V3.23936C24.4899 3.3039 24.4375 3.35628 24.3729 3.35628H24.2387V3.7507C28.3393 3.87669 31.625 7.24071 31.625 11.373C31.625 15.5856 28.2114 19 24.0004 19C19.7894 19 16.375 15.5856 16.375 11.373C16.375 7.24102 19.661 3.87708 23.7613 3.75078V3.35628H23.6271C23.5625 3.35628 23.5102 3.3039 23.5102 3.23936V3.11691C23.5102 3.05238 23.5625 3 23.6271 3H24.3729ZM24.1911 4.75062V5.41987C24.1911 5.5254 24.1055 5.61093 24 5.61093C23.8945 5.61093 23.8089 5.5254 23.8089 5.41987V4.75062C20.3016 4.85038 17.4781 7.67406 17.3788 11.1822H18.0479C18.1534 11.1822 18.239 11.2677 18.239 11.3733C18.239 11.4789 18.1534 11.5644 18.0479 11.5644H17.3788C17.4786 15.0723 20.3019 17.8962 23.8089 17.996V17.3268C23.8089 17.2212 23.8945 17.1356 24 17.1356C24.1055 17.1356 24.1911 17.2212 24.1911 17.3268V17.996C27.6984 17.8966 30.5214 15.0725 30.6212 11.5644H29.9521C29.8466 11.5644 29.7611 11.4789 29.7611 11.3733C29.7611 11.2677 29.8466 11.1822 29.9521 11.1822H30.6212C30.5219 7.67375 27.6987 4.84999 24.1911 4.75062ZM24 11.017C24.1967 11.017 24.3562 11.1765 24.3562 11.3733C24.3562 11.3936 24.3535 11.4131 24.3503 11.4324L26.6161 13.4819C26.6742 13.5345 26.7162 13.6026 26.7371 13.6782L26.7677 13.7894C26.7827 13.8435 26.7363 13.8948 26.681 13.8854L26.5672 13.866C26.4899 13.8529 26.418 13.8179 26.3598 13.7653L24.0936 11.7155C24.0636 11.7238 24.0326 11.7296 24 11.7296C23.8034 11.7296 23.6438 11.5701 23.6438 11.3733C23.6438 11.1765 23.8034 11.017 24 11.017Z" fill="white"/>
</g>
<path d="M38.456 4.32V3.324H40.712V12H39.608V4.32H38.456ZM46.8478 0.696L43.5598 14.04H42.4798L45.7558 0.696H46.8478ZM48.1628 11.124C49.1788 10.308 49.9748 9.64 50.5508 9.12C51.1268 8.592 51.6108 8.044 52.0028 7.476C52.4028 6.9 52.6028 6.336 52.6028 5.784C52.6028 5.264 52.4748 4.856 52.2188 4.56C51.9708 4.256 51.5668 4.104 51.0068 4.104C50.4628 4.104 50.0388 4.276 49.7348 4.62C49.4388 4.956 49.2788 5.408 49.2548 5.976H48.1988C48.2308 5.08 48.5028 4.388 49.0148 3.9C49.5268 3.412 50.1868 3.168 50.9948 3.168C51.8188 3.168 52.4708 3.396 52.9508 3.852C53.4388 4.308 53.6828 4.936 53.6828 5.736C53.6828 6.4 53.4828 7.048 53.0828 7.68C52.6908 8.304 52.2428 8.856 51.7388 9.336C51.2348 9.808 50.5908 10.36 49.8068 10.992H53.9348V11.904H48.1628V11.124ZM55.1971 7.572C55.1971 6.196 55.4211 5.124 55.8691 4.356C56.3171 3.58 57.1011 3.192 58.2211 3.192C59.3331 3.192 60.1131 3.58 60.5611 4.356C61.0091 5.124 61.2331 6.196 61.2331 7.572C61.2331 8.972 61.0091 10.06 60.5611 10.836C60.1131 11.612 59.3331 12 58.2211 12C57.1011 12 56.3171 11.612 55.8691 10.836C55.4211 10.06 55.1971 8.972 55.1971 7.572ZM60.1531 7.572C60.1531 6.876 60.1051 6.288 60.0091 5.808C59.9211 5.32 59.7331 4.928 59.4451 4.632C59.1651 4.336 58.7571 4.188 58.2211 4.188C57.6771 4.188 57.2611 4.336 56.9731 4.632C56.6931 4.928 56.5051 5.32 56.4091 5.808C56.3211 6.288 56.2771 6.876 56.2771 7.572C56.2771 8.292 56.3211 8.896 56.4091 9.384C56.5051 9.872 56.6931 10.264 56.9731 10.56C57.2611 10.856 57.6771 11.004 58.2211 11.004C58.7571 11.004 59.1651 10.856 59.4451 10.56C59.7331 10.264 59.9211 9.872 60.0091 9.384C60.1051 8.896 60.1531 8.292 60.1531 7.572ZM62.7323 7.572C62.7323 6.196 62.9563 5.124 63.4043 4.356C63.8523 3.58 64.6363 3.192 65.7563 3.192C66.8683 3.192 67.6483 3.58 68.0963 4.356C68.5443 5.124 68.7683 6.196 68.7683 7.572C68.7683 8.972 68.5443 10.06 68.0963 10.836C67.6483 11.612 66.8683 12 65.7563 12C64.6363 12 63.8523 11.612 63.4043 10.836C62.9563 10.06 62.7323 8.972 62.7323 7.572ZM67.6883 7.572C67.6883 6.876 67.6403 6.288 67.5443 5.808C67.4563 5.32 67.2683 4.928 66.9803 4.632C66.7003 4.336 66.2923 4.188 65.7563 4.188C65.2123 4.188 64.7963 4.336 64.5083 4.632C64.2283 4.928 64.0403 5.32 63.9443 5.808C63.8563 6.288 63.8123 6.876 63.8123 7.572C63.8123 8.292 63.8563 8.896 63.9443 9.384C64.0403 9.872 64.2283 10.264 64.5083 10.56C64.7963 10.856 65.2123 11.004 65.7563 11.004C66.2923 11.004 66.7003 10.856 66.9803 10.56C67.2683 10.264 67.4563 9.872 67.5443 9.384C67.6403 8.896 67.6883 8.292 67.6883 7.572ZM70.2674 7.572C70.2674 6.196 70.4914 5.124 70.9394 4.356C71.3874 3.58 72.1714 3.192 73.2914 3.192C74.4034 3.192 75.1834 3.58 75.6314 4.356C76.0794 5.124 76.3034 6.196 76.3034 7.572C76.3034 8.972 76.0794 10.06 75.6314 10.836C75.1834 11.612 74.4034 12 73.2914 12C72.1714 12 71.3874 11.612 70.9394 10.836C70.4914 10.06 70.2674 8.972 70.2674 7.572ZM75.2234 7.572C75.2234 6.876 75.1754 6.288 75.0794 5.808C74.9914 5.32 74.8034 4.928 74.5154 4.632C74.2354 4.336 73.8274 4.188 73.2914 4.188C72.7474 4.188 72.3314 4.336 72.0434 4.632C71.7634 4.928 71.5754 5.32 71.4794 5.808C71.3914 6.288 71.3474 6.876 71.3474 7.572C71.3474 8.292 71.3914 8.896 71.4794 9.384C71.5754 9.872 71.7634 10.264 72.0434 10.56C72.3314 10.856 72.7474 11.004 73.2914 11.004C73.8274 11.004 74.2354 10.856 74.5154 10.56C74.8034 10.264 74.9914 9.872 75.0794 9.384C75.1754 8.896 75.2234 8.292 75.2234 7.572ZM80.3106 12.108C79.8066 12.108 79.3546 12.024 78.9546 11.856C78.5546 11.68 78.2386 11.44 78.0066 11.136C77.7746 10.824 77.6466 10.468 77.6226 10.068H78.7506C78.7826 10.396 78.9346 10.664 79.2066 10.872C79.4866 11.08 79.8506 11.184 80.2986 11.184C80.7146 11.184 81.0426 11.092 81.2826 10.908C81.5226 10.724 81.6426 10.492 81.6426 10.212C81.6426 9.924 81.5146 9.712 81.2586 9.576C81.0026 9.432 80.6066 9.292 80.0706 9.156C79.5826 9.028 79.1826 8.9 78.8706 8.772C78.5666 8.636 78.3026 8.44 78.0786 8.184C77.8626 7.92 77.7546 7.576 77.7546 7.152C77.7546 6.816 77.8546 6.508 78.0546 6.228C78.2546 5.948 78.5386 5.728 78.9066 5.568C79.2746 5.4 79.6946 5.316 80.1666 5.316C80.8946 5.316 81.4826 5.5 81.9306 5.868C82.3786 6.236 82.6186 6.74 82.6506 7.38H81.5586C81.5346 7.036 81.3946 6.76 81.1386 6.552C80.8906 6.344 80.5546 6.24 80.1306 6.24C79.7386 6.24 79.4266 6.324 79.1946 6.492C78.9626 6.66 78.8466 6.88 78.8466 7.152C78.8466 7.368 78.9146 7.548 79.0506 7.692C79.1946 7.828 79.3706 7.94 79.5786 8.028C79.7946 8.108 80.0906 8.2 80.4666 8.304C80.9386 8.432 81.3226 8.56 81.6186 8.688C81.9146 8.808 82.1666 8.992 82.3746 9.24C82.5906 9.488 82.7026 9.812 82.7106 10.212C82.7106 10.572 82.6106 10.896 82.4106 11.184C82.2106 11.472 81.9266 11.7 81.5586 11.868C81.1986 12.028 80.7826 12.108 80.3106 12.108Z" fill="white"/>
<g clip-path="url(#clip1_2_21)">
<path fill-rule="evenodd" clip-rule="evenodd" d="M186.899 3C188.612 3 190 4.39911 190 6.125V15.875C190 17.6009 188.612 19 186.899 19H161.101C159.388 19 158 17.6009 158 15.875V6.125C158 4.39911 159.388 3 161.101 3H186.899ZM170.71 5.911C170.031 5.911 169.428 6.02737 168.9 6.26012C168.372 6.49287 167.962 6.82775 167.67 7.26475C167.378 7.70175 167.232 8.21475 167.232 8.80375C167.232 9.43075 167.375 9.93188 167.663 10.3071C167.95 10.6824 168.294 10.9626 168.695 11.1479C169.096 11.3331 169.616 11.5208 170.257 11.7107C170.729 11.8438 171.099 11.9649 171.367 12.0741C171.636 12.1834 171.86 12.333 172.039 12.523C172.218 12.713 172.308 12.9552 172.308 13.2498C172.308 13.6108 172.176 13.9029 171.912 14.1261C171.648 14.3494 171.285 14.461 170.823 14.461C170.371 14.461 170.015 14.3422 169.756 14.1047C169.507 13.8767 169.364 13.57 169.328 13.1844L169.324 13.1357H167.203L167.205 13.2006C167.225 13.7813 167.389 14.2869 167.698 14.7175C168.019 15.164 168.455 15.506 169.006 15.7435C169.558 15.981 170.177 16.0997 170.865 16.0997C171.591 16.0997 172.218 15.9644 172.746 15.6936C173.274 15.4229 173.675 15.0595 173.948 14.6035C174.221 14.1475 174.358 13.6535 174.358 13.1215C174.358 12.504 174.212 12.0052 173.92 11.6252C173.627 11.2452 173.279 10.9602 172.873 10.7702C172.468 10.5802 171.945 10.3903 171.304 10.2003C170.832 10.0578 170.467 9.93188 170.208 9.82263C169.949 9.71338 169.732 9.57087 169.558 9.39512C169.383 9.21938 169.296 8.9985 169.296 8.7325C169.296 8.3525 169.411 8.06275 169.642 7.86325C169.873 7.66375 170.182 7.564 170.569 7.564C171.012 7.564 171.367 7.67563 171.636 7.89888C171.894 8.11282 172.036 8.3813 172.064 8.70431L172.067 8.74675H174.245L174.24 8.68617C174.163 7.82222 173.813 7.14654 173.191 6.65913C172.555 6.16038 171.728 5.911 170.71 5.911ZM181.394 5.911C180.47 5.911 179.622 6.1295 178.849 6.5665C178.076 7.0035 177.463 7.60913 177.011 8.38338C176.559 9.15763 176.332 10.0293 176.332 10.9983C176.332 11.9768 176.559 12.8531 177.011 13.6274C177.463 14.4016 178.076 15.0072 178.849 15.4443C179.622 15.8813 180.47 16.0997 181.394 16.0997C182.318 16.0997 183.166 15.8813 183.939 15.4443C184.712 15.0072 185.323 14.4016 185.77 13.6274C186.218 12.8531 186.442 11.9768 186.442 10.9983C186.442 10.0293 186.218 9.15763 185.77 8.38338C185.323 7.60913 184.715 7.0035 183.946 6.5665C183.178 6.1295 182.327 5.911 181.394 5.911ZM164.762 6.0535H162.783V16H164.762V6.0535ZM181.394 7.7065C181.988 7.7065 182.511 7.8395 182.964 8.1055C183.416 8.3715 183.77 8.75387 184.024 9.25262C184.279 9.75138 184.406 10.3333 184.406 10.9983C184.406 11.6632 184.279 12.2475 184.024 12.751C183.77 13.2545 183.416 13.6416 182.964 13.9124C182.511 14.1831 181.988 14.3185 181.394 14.3185C180.8 14.3185 180.275 14.1831 179.818 13.9124C179.36 13.6416 179.005 13.2545 178.75 12.751C178.496 12.2475 178.368 11.6632 178.368 10.9983C178.368 10.3333 178.496 9.75138 178.75 9.25262C179.005 8.75387 179.36 8.3715 179.818 8.1055C180.275 7.8395 180.8 7.7065 181.394 7.7065Z" fill="white"/>
</g>
<path d="M197.456 4.32V3.324H199.712V12H198.608V4.32H197.456ZM201.588 7.572C201.588 6.196 201.812 5.124 202.26 4.356C202.708 3.58 203.492 3.192 204.612 3.192C205.724 3.192 206.504 3.58 206.952 4.356C207.4 5.124 207.624 6.196 207.624 7.572C207.624 8.972 207.4 10.06 206.952 10.836C206.504 11.612 205.724 12 204.612 12C203.492 12 202.708 11.612 202.26 10.836C201.812 10.06 201.588 8.972 201.588 7.572ZM206.544 7.572C206.544 6.876 206.496 6.288 206.4 5.808C206.312 5.32 206.124 4.928 205.836 4.632C205.556 4.336 205.148 4.188 204.612 4.188C204.068 4.188 203.652 4.336 203.364 4.632C203.084 4.928 202.896 5.32 202.8 5.808C202.712 6.288 202.668 6.876 202.668 7.572C202.668 8.292 202.712 8.896 202.8 9.384C202.896 9.872 203.084 10.264 203.364 10.56C203.652 10.856 204.068 11.004 204.612 11.004C205.148 11.004 205.556 10.856 205.836 10.56C206.124 10.264 206.312 9.872 206.4 9.384C206.496 8.896 206.544 8.292 206.544 7.572ZM209.123 7.572C209.123 6.196 209.347 5.124 209.795 4.356C210.243 3.58 211.027 3.192 212.147 3.192C213.259 3.192 214.039 3.58 214.487 4.356C214.935 5.124 215.159 6.196 215.159 7.572C215.159 8.972 214.935 10.06 214.487 10.836C214.039 11.612 213.259 12 212.147 12C211.027 12 210.243 11.612 209.795 10.836C209.347 10.06 209.123 8.972 209.123 7.572ZM214.079 7.572C214.079 6.876 214.031 6.288 213.935 5.808C213.847 5.32 213.659 4.928 213.371 4.632C213.091 4.336 212.683 4.188 212.147 4.188C211.603 4.188 211.187 4.336 210.899 4.632C210.619 4.928 210.431 5.32 210.335 5.808C210.247 6.288 210.203 6.876 210.203 7.572C210.203 8.292 210.247 8.896 210.335 9.384C210.431 9.872 210.619 10.264 210.899 10.56C211.187 10.856 211.603 11.004 212.147 11.004C212.683 11.004 213.091 10.856 213.371 10.56C213.659 10.264 213.847 9.872 213.935 9.384C214.031 8.896 214.079 8.292 214.079 7.572Z" fill="white"/>
<g clip-path="url(#clip2_2_21)">
<path fill-rule="evenodd" clip-rule="evenodd" d="M106.639 13.5956L114.023 17.8859C112.84 18.597 111.467 19 110 19C108.793 19 107.657 18.7393 106.639 18.2415V13.5956ZM106.047 9.39976V17.9331C103.823 16.7005 102.284 14.4012 102.048 11.7227L106.047 9.39976ZM118 10.9403V11.0114C118 13.7136 116.651 16.1077 114.592 17.5299L110.592 15.2306L118 10.9403ZM113.953 4.06667C116.178 5.29926 117.716 7.59852 117.953 10.277L113.953 12.6V4.06667ZM105.408 4.46963L109.408 6.76889L102 11.0356V11.0119C102 8.28593 103.349 5.89185 105.408 4.46963ZM110 3C111.208 3 112.344 3.26074 113.361 3.75852V8.38074L105.977 4.09037C107.16 3.40296 108.533 3 110 3Z" fill="white"/>
</g>
<path d="M127.6 6.324H126.22V12H125.128V6.324H124.276V5.424H125.128V4.956C125.128 4.22 125.316 3.684 125.692 3.348C126.076 3.004 126.688 2.832 127.528 2.832V3.744C127.048 3.744 126.708 3.84 126.508 4.032C126.316 4.216 126.22 4.524 126.22 4.956V5.424H127.6V6.324ZM132.953 0.696L129.665 14.04H128.585L131.861 0.696H132.953ZM134.112 4.32V3.324H136.368V12H135.264V4.32H134.112ZM137.956 4.32V3.324H140.212V12H139.108V4.32H137.956Z" fill="white"/>
<g clip-path="url(#clip3_2_21)">
<path fill-rule="evenodd" clip-rule="evenodd" d="M238 9.44452C237.038 9.44452 236.26 8.70036 236.26 7.78061C236.26 6.86295 237.038 6.11879 238 6.11879C238.96 6.11879 239.738 6.86295 239.738 7.78061C239.738 8.70036 238.96 9.44452 238 9.44452ZM238 3C235.239 3 233 5.14051 233 7.78061C233 9.70791 235.659 15.471 237.099 18.4497C237.453 19.1834 238.544 19.1834 238.901 18.4497C240.339 15.471 243 9.70791 243 7.78061C243 5.14051 240.761 3 238 3Z" fill="white"/>
</g>
<path d="M250.016 3.636V12H248.924V3.636H250.016ZM251.469 8.7C251.469 8.02 251.605 7.428 251.877 6.924C252.149 6.412 252.525 6.016 253.005 5.736C253.493 5.456 254.049 5.316 254.673 5.316C255.481 5.316 256.145 5.512 256.665 5.904C257.193 6.296 257.541 6.84 257.709 7.536H256.533C256.421 7.136 256.201 6.82 255.873 6.588C255.553 6.356 255.153 6.24 254.673 6.24C254.049 6.24 253.545 6.456 253.161 6.888C252.777 7.312 252.585 7.916 252.585 8.7C252.585 9.492 252.777 10.104 253.161 10.536C253.545 10.968 254.049 11.184 254.673 11.184C255.153 11.184 255.553 11.072 255.873 10.848C256.193 10.624 256.413 10.304 256.533 9.888H257.709C257.533 10.56 257.181 11.1 256.653 11.508C256.125 11.908 255.465 12.108 254.673 12.108C254.049 12.108 253.493 11.968 253.005 11.688C252.525 11.408 252.149 11.012 251.877 10.5C251.605 9.988 251.469 9.388 251.469 8.7ZM265.166 8.46C265.166 8.668 265.154 8.888 265.13 9.12H259.874C259.914 9.768 260.134 10.276 260.534 10.644C260.942 11.004 261.434 11.184 262.01 11.184C262.482 11.184 262.874 11.076 263.186 10.86C263.506 10.636 263.73 10.34 263.858 9.972H265.034C264.858 10.604 264.506 11.12 263.978 11.52C263.45 11.912 262.794 12.108 262.01 12.108C261.386 12.108 260.826 11.968 260.33 11.688C259.842 11.408 259.458 11.012 259.178 10.5C258.898 9.98 258.758 9.38 258.758 8.7C258.758 8.02 258.894 7.424 259.166 6.912C259.438 6.4 259.818 6.008 260.306 5.736C260.802 5.456 261.37 5.316 262.01 5.316C262.634 5.316 263.186 5.452 263.666 5.724C264.146 5.996 264.514 6.372 264.77 6.852C265.034 7.324 265.166 7.86 265.166 8.46ZM264.038 8.232C264.038 7.816 263.946 7.46 263.762 7.164C263.578 6.86 263.326 6.632 263.006 6.48C262.694 6.32 262.346 6.24 261.962 6.24C261.41 6.24 260.938 6.416 260.546 6.768C260.162 7.12 259.942 7.608 259.886 8.232H264.038ZM267.7 3.12V12H266.608V3.12H267.7ZM269.153 8.688C269.153 8.016 269.289 7.428 269.561 6.924C269.833 6.412 270.205 6.016 270.677 5.736C271.157 5.456 271.689 5.316 272.273 5.316C272.849 5.316 273.349 5.44 273.773 5.688C274.197 5.936 274.513 6.248 274.721 6.624V5.424H275.825V12H274.721V10.776C274.505 11.16 274.181 11.48 273.749 11.736C273.325 11.984 272.829 12.108 272.261 12.108C271.677 12.108 271.149 11.964 270.677 11.676C270.205 11.388 269.833 10.984 269.561 10.464C269.289 9.944 269.153 9.352 269.153 8.688ZM274.721 8.7C274.721 8.204 274.621 7.772 274.421 7.404C274.221 7.036 273.949 6.756 273.605 6.564C273.269 6.364 272.897 6.264 272.489 6.264C272.081 6.264 271.709 6.36 271.373 6.552C271.037 6.744 270.769 7.024 270.569 7.392C270.369 7.76 270.269 8.192 270.269 8.688C270.269 9.192 270.369 9.632 270.569 10.008C270.769 10.376 271.037 10.66 271.373 10.86C271.709 11.052 272.081 11.148 272.489 11.148C272.897 11.148 273.269 11.052 273.605 10.86C273.949 10.66 274.221 10.376 274.421 10.008C274.621 9.632 274.721 9.196 274.721 8.7ZM280.874 5.304C281.674 5.304 282.322 5.548 282.818 6.036C283.314 6.516 283.562 7.212 283.562 8.124V12H282.482V8.28C282.482 7.624 282.318 7.124 281.99 6.78C281.662 6.428 281.214 6.252 280.646 6.252C280.07 6.252 279.61 6.432 279.266 6.792C278.93 7.152 278.762 7.676 278.762 8.364V12H277.67V5.424H278.762V6.36C278.978 6.024 279.27 5.764 279.638 5.58C280.014 5.396 280.426 5.304 280.874 5.304ZM284.938 8.688C284.938 8.016 285.074 7.428 285.346 6.924C285.618 6.412 285.99 6.016 286.462 5.736C286.942 5.456 287.478 5.316 288.07 5.316C288.582 5.316 289.058 5.436 289.498 5.676C289.938 5.908 290.274 6.216 290.506 6.6V3.12H291.61V12H290.506V10.764C290.29 11.156 289.97 11.48 289.546 11.736C289.122 11.984 288.626 12.108 288.058 12.108C287.474 12.108 286.942 11.964 286.462 11.676C285.99 11.388 285.618 10.984 285.346 10.464C285.074 9.944 284.938 9.352 284.938 8.688ZM290.506 8.7C290.506 8.204 290.406 7.772 290.206 7.404C290.006 7.036 289.734 6.756 289.39 6.564C289.054 6.364 288.682 6.264 288.274 6.264C287.866 6.264 287.494 6.36 287.158 6.552C286.822 6.744 286.554 7.024 286.354 7.392C286.154 7.76 286.054 8.192 286.054 8.688C286.054 9.192 286.154 9.632 286.354 10.008C286.554 10.376 286.822 10.66 287.158 10.86C287.494 11.052 287.866 11.148 288.274 11.148C288.682 11.148 289.054 11.052 289.39 10.86C289.734 10.66 290.006 10.376 290.206 10.008C290.406 9.632 290.506 9.196 290.506 8.7Z" fill="white"/>
<defs>
<clipPath id="clip0_2_21">
<rect width="16" height="16" fill="white" transform="translate(16 3)"/>
</clipPath>
<clipPath id="clip1_2_21">
<rect width="32" height="16" fill="white" transform="translate(158 3)"/>
</clipPath>
<clipPath id="clip2_2_21">
<rect width="16" height="16" fill="white" transform="translate(102 3)"/>
</clipPath>
<clipPath id="clip3_2_21">
<rect width="10" height="16" fill="white" transform="translate(233 3)"/>
</clipPath>
</defs>
</svg>
