<svg width="320" height="19" viewBox="0 0 320 19" fill="none" xmlns="http://www.w3.org/2000/svg">
<g clip-path="url(#clip0_2_286)">
<path fill-rule="evenodd" clip-rule="evenodd" d="M24.3729 3C24.4375 3 24.4899 3.05238 24.4899 3.11691V3.23936C24.4899 3.3039 24.4375 3.35628 24.3729 3.35628H24.2387V3.7507C28.3393 3.87669 31.625 7.24071 31.625 11.373C31.625 15.5856 28.2114 19 24.0004 19C19.7894 19 16.375 15.5856 16.375 11.373C16.375 7.24102 19.661 3.87708 23.7613 3.75078V3.35628H23.6271C23.5625 3.35628 23.5102 3.3039 23.5102 3.23936V3.11691C23.5102 3.05238 23.5625 3 23.6271 3H24.3729ZM24.1911 4.75062V5.41987C24.1911 5.5254 24.1055 5.61093 24 5.61093C23.8945 5.61093 23.8089 5.5254 23.8089 5.41987V4.75062C20.3016 4.85038 17.4781 7.67406 17.3788 11.1822H18.0479C18.1534 11.1822 18.239 11.2677 18.239 11.3733C18.239 11.4789 18.1534 11.5644 18.0479 11.5644H17.3788C17.4786 15.0723 20.3019 17.8962 23.8089 17.996V17.3268C23.8089 17.2212 23.8945 17.1356 24 17.1356C24.1055 17.1356 24.1911 17.2212 24.1911 17.3268V17.996C27.6984 17.8966 30.5214 15.0725 30.6212 11.5644H29.9521C29.8466 11.5644 29.7611 11.4789 29.7611 11.3733C29.7611 11.2677 29.8466 11.1822 29.9521 11.1822H30.6212C30.5219 7.67375 27.6987 4.84999 24.1911 4.75062ZM24 11.017C24.1967 11.017 24.3562 11.1765 24.3562 11.3733C24.3562 11.3936 24.3535 11.4131 24.3503 11.4324L26.6161 13.4819C26.6742 13.5345 26.7162 13.6026 26.7371 13.6782L26.7677 13.7894C26.7827 13.8435 26.7363 13.8948 26.681 13.8854L26.5672 13.866C26.4899 13.8529 26.418 13.8179 26.3598 13.7653L24.0936 11.7155C24.0636 11.7238 24.0326 11.7296 24 11.7296C23.8034 11.7296 23.6438 11.5701 23.6438 11.3733C23.6438 11.1765 23.8034 11.017 24 11.017Z" fill="white"/>
</g>
<path d="M38.456 4.32V3.324H40.712V12H39.608V4.32H38.456ZM46.8478 0.696L43.5598 14.04H42.4798L45.7558 0.696H46.8478ZM48.0308 10.068V9.24L52.2428 3.408H53.5508V9.12H54.7508V10.068H53.5508V12H52.4708V10.068H48.0308ZM52.5188 4.548L49.2908 9.12H52.5188V4.548ZM55.8417 7.572C55.8417 6.196 56.0657 5.124 56.5137 4.356C56.9617 3.58 57.7457 3.192 58.8657 3.192C59.9777 3.192 60.7577 3.58 61.2057 4.356C61.6537 5.124 61.8777 6.196 61.8777 7.572C61.8777 8.972 61.6537 10.06 61.2057 10.836C60.7577 11.612 59.9777 12 58.8657 12C57.7457 12 56.9617 11.612 56.5137 10.836C56.0657 10.06 55.8417 8.972 55.8417 7.572ZM60.7977 7.572C60.7977 6.876 60.7497 6.288 60.6537 5.808C60.5657 5.32 60.3777 4.928 60.0897 4.632C59.8097 4.336 59.4017 4.188 58.8657 4.188C58.3217 4.188 57.9057 4.336 57.6177 4.632C57.3377 4.928 57.1497 5.32 57.0537 5.808C56.9657 6.288 56.9217 6.876 56.9217 7.572C56.9217 8.292 56.9657 8.896 57.0537 9.384C57.1497 9.872 57.3377 10.264 57.6177 10.56C57.9057 10.856 58.3217 11.004 58.8657 11.004C59.4017 11.004 59.8097 10.856 60.0897 10.56C60.3777 10.264 60.5657 9.872 60.6537 9.384C60.7497 8.896 60.7977 8.292 60.7977 7.572ZM63.3768 7.572C63.3768 6.196 63.6008 5.124 64.0488 4.356C64.4968 3.58 65.2808 3.192 66.4008 3.192C67.5128 3.192 68.2928 3.58 68.7408 4.356C69.1888 5.124 69.4128 6.196 69.4128 7.572C69.4128 8.972 69.1888 10.06 68.7408 10.836C68.2928 11.612 67.5128 12 66.4008 12C65.2808 12 64.4968 11.612 64.0488 10.836C63.6008 10.06 63.3768 8.972 63.3768 7.572ZM68.3328 7.572C68.3328 6.876 68.2848 6.288 68.1888 5.808C68.1008 5.32 67.9128 4.928 67.6248 4.632C67.3448 4.336 66.9368 4.188 66.4008 4.188C65.8568 4.188 65.4408 4.336 65.1528 4.632C64.8728 4.928 64.6848 5.32 64.5888 5.808C64.5008 6.288 64.4568 6.876 64.4568 7.572C64.4568 8.292 64.5008 8.896 64.5888 9.384C64.6848 9.872 64.8728 10.264 65.1528 10.56C65.4408 10.856 65.8568 11.004 66.4008 11.004C66.9368 11.004 67.3448 10.856 67.6248 10.56C67.9128 10.264 68.1008 9.872 68.1888 9.384C68.2848 8.896 68.3328 8.292 68.3328 7.572ZM73.42 12.108C72.916 12.108 72.464 12.024 72.064 11.856C71.664 11.68 71.348 11.44 71.116 11.136C70.884 10.824 70.756 10.468 70.732 10.068H71.86C71.892 10.396 72.044 10.664 72.316 10.872C72.596 11.08 72.96 11.184 73.408 11.184C73.824 11.184 74.152 11.092 74.392 10.908C74.632 10.724 74.752 10.492 74.752 10.212C74.752 9.924 74.624 9.712 74.368 9.576C74.112 9.432 73.716 9.292 73.18 9.156C72.692 9.028 72.292 8.9 71.98 8.772C71.676 8.636 71.412 8.44 71.188 8.184C70.972 7.92 70.864 7.576 70.864 7.152C70.864 6.816 70.964 6.508 71.164 6.228C71.364 5.948 71.648 5.728 72.016 5.568C72.384 5.4 72.804 5.316 73.276 5.316C74.004 5.316 74.592 5.5 75.04 5.868C75.488 6.236 75.728 6.74 75.76 7.38H74.668C74.644 7.036 74.504 6.76 74.248 6.552C74 6.344 73.664 6.24 73.24 6.24C72.848 6.24 72.536 6.324 72.304 6.492C72.072 6.66 71.956 6.88 71.956 7.152C71.956 7.368 72.024 7.548 72.16 7.692C72.304 7.828 72.48 7.94 72.688 8.028C72.904 8.108 73.2 8.2 73.576 8.304C74.048 8.432 74.432 8.56 74.728 8.688C75.024 8.808 75.276 8.992 75.484 9.24C75.7 9.488 75.812 9.812 75.82 10.212C75.82 10.572 75.72 10.896 75.52 11.184C75.32 11.472 75.036 11.7 74.668 11.868C74.308 12.028 73.892 12.108 73.42 12.108Z" fill="white"/>
<g clip-path="url(#clip1_2_286)">
<path fill-rule="evenodd" clip-rule="evenodd" d="M99.6393 13.5956L107.023 17.8859C105.84 18.597 104.467 19 103 19C101.793 19 100.657 18.7393 99.6393 18.2415V13.5956ZM99.0473 9.39976V17.9331C96.8226 16.7005 95.2842 14.4012 95.0476 11.7227L99.0473 9.39976ZM111 10.9403V11.0114C111 13.7136 109.651 16.1077 107.592 17.5299L103.592 15.2306L111 10.9403ZM106.953 4.06667C109.178 5.29926 110.716 7.59852 110.953 10.277L106.953 12.6V4.06667ZM98.4081 4.46963L102.408 6.76889L95 11.0356V11.0119C95 8.28593 96.349 5.89185 98.4081 4.46963ZM103 3C104.208 3 105.344 3.26074 106.361 3.75852V8.38074L98.977 4.09037C100.16 3.40296 101.533 3 103 3Z" fill="white"/>
</g>
<path d="M120.6 6.324H119.22V12H118.128V6.324H117.276V5.424H118.128V4.956C118.128 4.22 118.316 3.684 118.692 3.348C119.076 3.004 119.688 2.832 120.528 2.832V3.744C120.048 3.744 119.708 3.84 119.508 4.032C119.316 4.216 119.22 4.524 119.22 4.956V5.424H120.6V6.324ZM125.953 0.696L122.665 14.04H121.585L124.861 0.696H125.953ZM127.376 5.508C127.432 4.772 127.716 4.196 128.228 3.78C128.74 3.364 129.404 3.156 130.22 3.156C130.764 3.156 131.232 3.256 131.624 3.456C132.024 3.648 132.324 3.912 132.524 4.248C132.732 4.584 132.836 4.964 132.836 5.388C132.836 5.884 132.692 6.312 132.404 6.672C132.124 7.032 131.756 7.264 131.3 7.368V7.428C131.82 7.556 132.232 7.808 132.536 8.184C132.84 8.56 132.992 9.052 132.992 9.66C132.992 10.116 132.888 10.528 132.68 10.896C132.472 11.256 132.16 11.54 131.744 11.748C131.328 11.956 130.828 12.06 130.244 12.06C129.396 12.06 128.7 11.84 128.156 11.4C127.612 10.952 127.308 10.32 127.244 9.504H128.3C128.356 9.984 128.552 10.376 128.888 10.68C129.224 10.984 129.672 11.136 130.232 11.136C130.792 11.136 131.216 10.992 131.504 10.704C131.8 10.408 131.948 10.028 131.948 9.564C131.948 8.964 131.748 8.532 131.348 8.268C130.948 8.004 130.344 7.872 129.536 7.872H129.26V6.96H129.548C130.284 6.952 130.84 6.832 131.216 6.6C131.592 6.36 131.78 5.992 131.78 5.496C131.78 5.072 131.64 4.732 131.36 4.476C131.088 4.22 130.696 4.092 130.184 4.092C129.688 4.092 129.288 4.22 128.984 4.476C128.68 4.732 128.5 5.076 128.444 5.508H127.376ZM135.775 10.488L134.431 13.716H133.699L134.575 10.488H135.775ZM142.378 4.272H138.166V7.008C138.35 6.752 138.622 6.544 138.982 6.384C139.342 6.216 139.73 6.132 140.146 6.132C140.81 6.132 141.35 6.272 141.766 6.552C142.182 6.824 142.478 7.18 142.654 7.62C142.838 8.052 142.93 8.512 142.93 9C142.93 9.576 142.822 10.092 142.606 10.548C142.39 11.004 142.058 11.364 141.61 11.628C141.17 11.892 140.622 12.024 139.966 12.024C139.126 12.024 138.446 11.808 137.926 11.376C137.406 10.944 137.09 10.368 136.978 9.648H138.046C138.15 10.104 138.37 10.46 138.706 10.716C139.042 10.972 139.466 11.1 139.978 11.1C140.61 11.1 141.086 10.912 141.406 10.536C141.726 10.152 141.886 9.648 141.886 9.024C141.886 8.4 141.726 7.92 141.406 7.584C141.086 7.24 140.614 7.068 139.99 7.068C139.566 7.068 139.194 7.172 138.874 7.38C138.562 7.58 138.334 7.856 138.19 8.208H137.158V3.312H142.378V4.272Z" fill="white"/>
<g clip-path="url(#clip2_2_286)">
<path fill-rule="evenodd" clip-rule="evenodd" d="M188.899 3C190.612 3 192 4.39911 192 6.125V15.875C192 17.6009 190.612 19 188.899 19H163.101C161.388 19 160 17.6009 160 15.875V6.125C160 4.39911 161.388 3 163.101 3H188.899ZM172.71 5.911C172.031 5.911 171.428 6.02737 170.9 6.26012C170.372 6.49287 169.962 6.82775 169.67 7.26475C169.378 7.70175 169.232 8.21475 169.232 8.80375C169.232 9.43075 169.375 9.93188 169.663 10.3071C169.95 10.6824 170.294 10.9626 170.695 11.1479C171.096 11.3331 171.616 11.5208 172.257 11.7107C172.729 11.8438 173.099 11.9649 173.367 12.0741C173.636 12.1834 173.86 12.333 174.039 12.523C174.218 12.713 174.308 12.9552 174.308 13.2498C174.308 13.6108 174.176 13.9029 173.912 14.1261C173.648 14.3494 173.285 14.461 172.823 14.461C172.371 14.461 172.015 14.3422 171.756 14.1047C171.507 13.8767 171.364 13.57 171.328 13.1844L171.324 13.1357H169.203L169.205 13.2006C169.225 13.7813 169.389 14.2869 169.698 14.7175C170.019 15.164 170.455 15.506 171.006 15.7435C171.558 15.981 172.177 16.0997 172.865 16.0997C173.591 16.0997 174.218 15.9644 174.746 15.6936C175.274 15.4229 175.675 15.0595 175.948 14.6035C176.221 14.1475 176.358 13.6535 176.358 13.1215C176.358 12.504 176.212 12.0052 175.92 11.6252C175.627 11.2452 175.279 10.9602 174.873 10.7702C174.468 10.5802 173.945 10.3903 173.304 10.2003C172.832 10.0578 172.467 9.93188 172.208 9.82263C171.949 9.71338 171.732 9.57087 171.558 9.39512C171.383 9.21938 171.296 8.9985 171.296 8.7325C171.296 8.3525 171.411 8.06275 171.642 7.86325C171.873 7.66375 172.182 7.564 172.569 7.564C173.012 7.564 173.367 7.67563 173.636 7.89888C173.894 8.11282 174.036 8.3813 174.064 8.70431L174.067 8.74675H176.245L176.24 8.68617C176.163 7.82222 175.813 7.14654 175.191 6.65913C174.555 6.16038 173.728 5.911 172.71 5.911ZM183.394 5.911C182.47 5.911 181.622 6.1295 180.849 6.5665C180.076 7.0035 179.463 7.60913 179.011 8.38338C178.559 9.15763 178.332 10.0293 178.332 10.9983C178.332 11.9768 178.559 12.8531 179.011 13.6274C179.463 14.4016 180.076 15.0072 180.849 15.4443C181.622 15.8813 182.47 16.0997 183.394 16.0997C184.318 16.0997 185.166 15.8813 185.939 15.4443C186.712 15.0072 187.323 14.4016 187.77 13.6274C188.218 12.8531 188.442 11.9768 188.442 10.9983C188.442 10.0293 188.218 9.15763 187.77 8.38338C187.323 7.60913 186.715 7.0035 185.946 6.5665C185.178 6.1295 184.327 5.911 183.394 5.911ZM166.762 6.0535H164.783V16H166.762V6.0535ZM183.394 7.7065C183.988 7.7065 184.511 7.8395 184.964 8.1055C185.416 8.3715 185.77 8.75387 186.024 9.25262C186.279 9.75138 186.406 10.3333 186.406 10.9983C186.406 11.6632 186.279 12.2475 186.024 12.751C185.77 13.2545 185.416 13.6416 184.964 13.9124C184.511 14.1831 183.988 14.3185 183.394 14.3185C182.8 14.3185 182.275 14.1831 181.818 13.9124C181.36 13.6416 181.005 13.2545 180.75 12.751C180.496 12.2475 180.368 11.6632 180.368 10.9983C180.368 10.3333 180.496 9.75138 180.75 9.25262C181.005 8.75387 181.36 8.3715 181.818 8.1055C182.275 7.8395 182.8 7.7065 183.394 7.7065Z" fill="white"/>
</g>
<path d="M199.456 4.32V3.324H201.712V12H200.608V4.32H199.456ZM203.588 7.572C203.588 6.196 203.812 5.124 204.26 4.356C204.708 3.58 205.492 3.192 206.612 3.192C207.724 3.192 208.504 3.58 208.952 4.356C209.4 5.124 209.624 6.196 209.624 7.572C209.624 8.972 209.4 10.06 208.952 10.836C208.504 11.612 207.724 12 206.612 12C205.492 12 204.708 11.612 204.26 10.836C203.812 10.06 203.588 8.972 203.588 7.572ZM208.544 7.572C208.544 6.876 208.496 6.288 208.4 5.808C208.312 5.32 208.124 4.928 207.836 4.632C207.556 4.336 207.148 4.188 206.612 4.188C206.068 4.188 205.652 4.336 205.364 4.632C205.084 4.928 204.896 5.32 204.8 5.808C204.712 6.288 204.668 6.876 204.668 7.572C204.668 8.292 204.712 8.896 204.8 9.384C204.896 9.872 205.084 10.264 205.364 10.56C205.652 10.856 206.068 11.004 206.612 11.004C207.148 11.004 207.556 10.856 207.836 10.56C208.124 10.264 208.312 9.872 208.4 9.384C208.496 8.896 208.544 8.292 208.544 7.572ZM211.123 7.572C211.123 6.196 211.347 5.124 211.795 4.356C212.243 3.58 213.027 3.192 214.147 3.192C215.259 3.192 216.039 3.58 216.487 4.356C216.935 5.124 217.159 6.196 217.159 7.572C217.159 8.972 216.935 10.06 216.487 10.836C216.039 11.612 215.259 12 214.147 12C213.027 12 212.243 11.612 211.795 10.836C211.347 10.06 211.123 8.972 211.123 7.572ZM216.079 7.572C216.079 6.876 216.031 6.288 215.935 5.808C215.847 5.32 215.659 4.928 215.371 4.632C215.091 4.336 214.683 4.188 214.147 4.188C213.603 4.188 213.187 4.336 212.899 4.632C212.619 4.928 212.431 5.32 212.335 5.808C212.247 6.288 212.203 6.876 212.203 7.572C212.203 8.292 212.247 8.896 212.335 9.384C212.431 9.872 212.619 10.264 212.899 10.56C213.187 10.856 213.603 11.004 214.147 11.004C214.683 11.004 215.091 10.856 215.371 10.56C215.659 10.264 215.847 9.872 215.935 9.384C216.031 8.896 216.079 8.292 216.079 7.572Z" fill="white"/>
<g clip-path="url(#clip3_2_286)">
<path fill-rule="evenodd" clip-rule="evenodd" d="M240 9.44452C239.038 9.44452 238.26 8.70036 238.26 7.78061C238.26 6.86295 239.038 6.11879 240 6.11879C240.96 6.11879 241.738 6.86295 241.738 7.78061C241.738 8.70036 240.96 9.44452 240 9.44452ZM240 3C237.239 3 235 5.14051 235 7.78061C235 9.70791 237.659 15.471 239.099 18.4497C239.453 19.1834 240.544 19.1834 240.901 18.4497C242.339 15.471 245 9.70791 245 7.78061C245 5.14051 242.761 3 240 3Z" fill="white"/>
</g>
<path d="M250.516 7.812C250.516 6.996 250.7 6.264 251.068 5.616C251.436 4.96 251.936 4.448 252.568 4.08C253.208 3.712 253.916 3.528 254.692 3.528C255.604 3.528 256.4 3.748 257.08 4.188C257.76 4.628 258.256 5.252 258.568 6.06H257.26C257.028 5.556 256.692 5.168 256.252 4.896C255.82 4.624 255.3 4.488 254.692 4.488C254.108 4.488 253.584 4.624 253.12 4.896C252.656 5.168 252.292 5.556 252.028 6.06C251.764 6.556 251.632 7.14 251.632 7.812C251.632 8.476 251.764 9.06 252.028 9.564C252.292 10.06 252.656 10.444 253.12 10.716C253.584 10.988 254.108 11.124 254.692 11.124C255.3 11.124 255.82 10.992 256.252 10.728C256.692 10.456 257.028 10.068 257.26 9.564H258.568C258.256 10.364 257.76 10.984 257.08 11.424C256.4 11.856 255.604 12.072 254.692 12.072C253.916 12.072 253.208 11.892 252.568 11.532C251.936 11.164 251.436 10.656 251.068 10.008C250.7 9.36 250.516 8.628 250.516 7.812ZM263.062 12.108C262.446 12.108 261.886 11.968 261.382 11.688C260.886 11.408 260.494 11.012 260.206 10.5C259.926 9.98 259.786 9.38 259.786 8.7C259.786 8.028 259.93 7.436 260.218 6.924C260.514 6.404 260.914 6.008 261.418 5.736C261.922 5.456 262.486 5.316 263.11 5.316C263.734 5.316 264.298 5.456 264.802 5.736C265.306 6.008 265.702 6.4 265.99 6.912C266.286 7.424 266.434 8.02 266.434 8.7C266.434 9.38 266.282 9.98 265.978 10.5C265.682 11.012 265.278 11.408 264.766 11.688C264.254 11.968 263.686 12.108 263.062 12.108ZM263.062 11.148C263.454 11.148 263.822 11.056 264.166 10.872C264.51 10.688 264.786 10.412 264.994 10.044C265.21 9.676 265.318 9.228 265.318 8.7C265.318 8.172 265.214 7.724 265.006 7.356C264.798 6.988 264.526 6.716 264.19 6.54C263.854 6.356 263.49 6.264 263.098 6.264C262.698 6.264 262.33 6.356 261.994 6.54C261.666 6.716 261.402 6.988 261.202 7.356C261.002 7.724 260.902 8.172 260.902 8.7C260.902 9.236 260.998 9.688 261.19 10.056C261.39 10.424 261.654 10.7 261.982 10.884C262.31 11.06 262.67 11.148 263.062 11.148ZM270.197 12.108C269.693 12.108 269.241 12.024 268.841 11.856C268.441 11.68 268.125 11.44 267.893 11.136C267.661 10.824 267.533 10.468 267.509 10.068H268.637C268.669 10.396 268.821 10.664 269.093 10.872C269.373 11.08 269.737 11.184 270.185 11.184C270.601 11.184 270.929 11.092 271.169 10.908C271.409 10.724 271.529 10.492 271.529 10.212C271.529 9.924 271.401 9.712 271.145 9.576C270.889 9.432 270.493 9.292 269.957 9.156C269.469 9.028 269.069 8.9 268.757 8.772C268.453 8.636 268.189 8.44 267.965 8.184C267.749 7.92 267.641 7.576 267.641 7.152C267.641 6.816 267.741 6.508 267.941 6.228C268.141 5.948 268.425 5.728 268.793 5.568C269.161 5.4 269.581 5.316 270.053 5.316C270.781 5.316 271.369 5.5 271.817 5.868C272.265 6.236 272.505 6.74 272.537 7.38H271.445C271.421 7.036 271.281 6.76 271.025 6.552C270.777 6.344 270.441 6.24 270.017 6.24C269.625 6.24 269.313 6.324 269.081 6.492C268.849 6.66 268.733 6.88 268.733 7.152C268.733 7.368 268.801 7.548 268.937 7.692C269.081 7.828 269.257 7.94 269.465 8.028C269.681 8.108 269.977 8.2 270.353 8.304C270.825 8.432 271.209 8.56 271.505 8.688C271.801 8.808 272.053 8.992 272.261 9.24C272.477 9.488 272.589 9.812 272.597 10.212C272.597 10.572 272.497 10.896 272.297 11.184C272.097 11.472 271.813 11.7 271.445 11.868C271.085 12.028 270.669 12.108 270.197 12.108ZM275.471 6.324V10.2C275.471 10.52 275.539 10.748 275.675 10.884C275.811 11.012 276.047 11.076 276.383 11.076H277.187V12H276.203C275.595 12 275.139 11.86 274.835 11.58C274.531 11.3 274.379 10.84 274.379 10.2V6.324H273.527V5.424H274.379V3.768H275.471V5.424H277.187V6.324H275.471ZM278.102 8.688C278.102 8.016 278.238 7.428 278.51 6.924C278.782 6.412 279.154 6.016 279.626 5.736C280.106 5.456 280.638 5.316 281.222 5.316C281.798 5.316 282.298 5.44 282.722 5.688C283.146 5.936 283.462 6.248 283.67 6.624V5.424H284.774V12H283.67V10.776C283.454 11.16 283.13 11.48 282.698 11.736C282.274 11.984 281.778 12.108 281.21 12.108C280.626 12.108 280.098 11.964 279.626 11.676C279.154 11.388 278.782 10.984 278.51 10.464C278.238 9.944 278.102 9.352 278.102 8.688ZM283.67 8.7C283.67 8.204 283.57 7.772 283.37 7.404C283.17 7.036 282.898 6.756 282.554 6.564C282.218 6.364 281.846 6.264 281.438 6.264C281.03 6.264 280.658 6.36 280.322 6.552C279.986 6.744 279.718 7.024 279.518 7.392C279.318 7.76 279.218 8.192 279.218 8.688C279.218 9.192 279.318 9.632 279.518 10.008C279.718 10.376 279.986 10.66 280.322 10.86C280.658 11.052 281.03 11.148 281.438 11.148C281.846 11.148 282.218 11.052 282.554 10.86C282.898 10.66 283.17 10.376 283.37 10.008C283.57 9.632 283.67 9.196 283.67 8.7ZM294.223 12L292.231 8.58H290.911V12H289.819V3.636H292.519C293.151 3.636 293.683 3.744 294.115 3.96C294.555 4.176 294.883 4.468 295.099 4.836C295.315 5.204 295.423 5.624 295.423 6.096C295.423 6.672 295.255 7.18 294.919 7.62C294.591 8.06 294.095 8.352 293.431 8.496L295.531 12H294.223ZM290.911 7.704H292.519C293.111 7.704 293.555 7.56 293.851 7.272C294.147 6.976 294.295 6.584 294.295 6.096C294.295 5.6 294.147 5.216 293.851 4.944C293.563 4.672 293.119 4.536 292.519 4.536H290.911V7.704ZM297.683 4.356C297.475 4.356 297.299 4.284 297.155 4.14C297.011 3.996 296.939 3.82 296.939 3.612C296.939 3.404 297.011 3.228 297.155 3.084C297.299 2.94 297.475 2.868 297.683 2.868C297.883 2.868 298.051 2.94 298.187 3.084C298.331 3.228 298.403 3.404 298.403 3.612C298.403 3.82 298.331 3.996 298.187 4.14C298.051 4.284 297.883 4.356 297.683 4.356ZM298.211 5.424V12H297.119V5.424H298.211ZM299.664 8.7C299.664 8.02 299.8 7.428 300.072 6.924C300.344 6.412 300.72 6.016 301.2 5.736C301.688 5.456 302.244 5.316 302.868 5.316C303.676 5.316 304.34 5.512 304.86 5.904C305.388 6.296 305.736 6.84 305.904 7.536H304.728C304.616 7.136 304.396 6.82 304.068 6.588C303.748 6.356 303.348 6.24 302.868 6.24C302.244 6.24 301.74 6.456 301.356 6.888C300.972 7.312 300.78 7.916 300.78 8.7C300.78 9.492 300.972 10.104 301.356 10.536C301.74 10.968 302.244 11.184 302.868 11.184C303.348 11.184 303.748 11.072 304.068 10.848C304.388 10.624 304.608 10.304 304.728 9.888H305.904C305.728 10.56 305.376 11.1 304.848 11.508C304.32 11.908 303.66 12.108 302.868 12.108C302.244 12.108 301.688 11.968 301.2 11.688C300.72 11.408 300.344 11.012 300.072 10.5C299.8 9.988 299.664 9.388 299.664 8.7ZM306.954 8.688C306.954 8.016 307.09 7.428 307.362 6.924C307.634 6.412 308.006 6.016 308.478 5.736C308.958 5.456 309.49 5.316 310.074 5.316C310.65 5.316 311.15 5.44 311.574 5.688C311.998 5.936 312.314 6.248 312.522 6.624V5.424H313.626V12H312.522V10.776C312.306 11.16 311.982 11.48 311.55 11.736C311.126 11.984 310.63 12.108 310.062 12.108C309.478 12.108 308.95 11.964 308.478 11.676C308.006 11.388 307.634 10.984 307.362 10.464C307.09 9.944 306.954 9.352 306.954 8.688ZM312.522 8.7C312.522 8.204 312.422 7.772 312.222 7.404C312.022 7.036 311.75 6.756 311.406 6.564C311.07 6.364 310.698 6.264 310.29 6.264C309.882 6.264 309.51 6.36 309.174 6.552C308.838 6.744 308.57 7.024 308.37 7.392C308.17 7.76 308.07 8.192 308.07 8.688C308.07 9.192 308.17 9.632 308.37 10.008C308.57 10.376 308.838 10.66 309.174 10.86C309.51 11.052 309.882 11.148 310.29 11.148C310.698 11.148 311.07 11.052 311.406 10.86C311.75 10.66 312.022 10.376 312.222 10.008C312.422 9.632 312.522 9.196 312.522 8.7Z" fill="white"/>
<defs>
<clipPath id="clip0_2_286">
<rect width="16" height="16" fill="white" transform="translate(16 3)"/>
</clipPath>
<clipPath id="clip1_2_286">
<rect width="16" height="16" fill="white" transform="translate(95 3)"/>
</clipPath>
<clipPath id="clip2_2_286">
<rect width="32" height="16" fill="white" transform="translate(160 3)"/>
</clipPath>
<clipPath id="clip3_2_286">
<rect width="10" height="16" fill="white" transform="translate(235 3)"/>
</clipPath>
</defs>
</svg>
